<svg width="364" height="364" viewBox="0 0 364 364" fill="none" xmlns="http://www.w3.org/2000/svg">
<rect width="363.253" height="363.253" fill="#252525"/>
<path d="M181 95.1816L164.999 122H104V155H145.309L129.199 182H104V269H80V95H181V95.1816Z" fill="#7D7D7D"/>
<path fill-rule="evenodd" clip-rule="evenodd" d="M231.783 165.645C240.828 165.505 249.745 167.794 257.605 172.272C265.465 176.75 271.98 183.254 276.472 191.106C280.964 198.958 283.27 207.87 283.147 216.915C283.024 225.961 280.478 234.808 275.774 242.534C271.07 250.261 264.38 256.585 256.401 260.848C248.422 265.111 239.446 267.156 230.409 266.771C221.371 266.386 212.601 263.584 205.014 258.658C197.427 253.732 191.3 246.862 187.27 238.763L200.54 232.16C203.389 237.887 207.72 242.745 213.084 246.228C218.449 249.711 224.649 251.691 231.04 251.963C237.43 252.235 243.776 250.79 249.417 247.776C255.058 244.762 259.788 240.29 263.114 234.827C266.44 229.364 268.24 223.109 268.327 216.714C268.414 210.319 266.784 204.017 263.608 198.465C260.432 192.914 255.825 188.316 250.268 185.15C244.711 181.984 238.406 180.366 232.011 180.464L231.783 165.645ZM236.931 99.0159C246.703 99.2533 256.236 102.234 264.537 107.649C272.837 113.063 279.601 120.714 284.124 129.802L270.703 137.15C267.432 130.579 262.542 125.048 256.54 121.133C250.539 117.218 243.646 115.063 236.581 114.891C229.515 114.719 222.534 116.538 216.367 120.157C210.199 123.777 205.068 129.064 201.511 135.469C197.954 141.874 196.1 149.163 196.141 156.575C196.182 163.988 198.118 171.253 201.747 177.614C205.375 183.975 210.563 189.199 216.771 192.742C222.979 196.286 229.979 198.019 237.042 197.761L237.57 213.631C227.801 213.988 218.119 211.591 209.534 206.691C200.948 201.79 193.772 194.564 188.753 185.766C183.735 176.968 181.059 166.92 181.001 156.668C180.944 146.416 183.508 136.336 188.428 127.477C193.348 118.618 200.443 111.305 208.973 106.299C217.504 101.293 227.159 98.7785 236.931 99.0159Z" fill="#7D7D7D"/>
<path d="M181.165 100.915C189.666 105.023 196.868 111.103 202.057 118.581C207.792 126.847 210.828 136.475 210.806 146.331C210.784 156.188 207.704 165.86 201.931 174.206C197.2 181.045 190.821 186.759 183.33 190.916L204.122 263.956L183.728 268.921L163.449 197.68C158.077 198.504 152.584 198.609 147.143 197.966C145.121 197.727 143.122 197.387 141.154 196.949L141.512 268.445L118.418 268.561L118.107 206.57L141.01 168.197L141.069 179.874C143.791 180.811 146.637 181.464 149.553 181.808C156.803 182.664 164.187 181.587 170.834 178.705C177.48 175.822 183.112 171.254 187.065 165.54C191.018 159.826 193.127 153.203 193.142 146.455C193.158 139.707 191.079 133.114 187.152 127.454C183.551 122.265 178.534 118.061 172.611 115.247L181.165 100.915Z" fill="#7D7D7D"/>
<path d="M181.753 39.1267C185.287 39.1298 188.791 39.2629 192.26 39.5188C192.254 39.7239 192.253 39.9297 192.252 40.136C192.241 53.3908 202.976 64.1455 216.231 64.1573C225.732 64.1658 233.947 58.6521 237.844 50.6472C271.651 65.1767 298.706 92.4091 313.002 126.334C303.249 129.376 296.165 138.472 296.155 149.228C296.144 162.483 306.879 173.238 320.134 173.25C321.403 173.251 322.65 173.153 323.866 172.964C324.04 175.871 324.129 178.802 324.127 181.753C324.086 227.005 302.956 267.31 270.042 293.384C267.112 283.45 257.927 276.194 247.043 276.185C233.788 276.173 223.033 286.909 223.021 300.163C223.016 306.256 225.282 311.819 229.019 316.055C214.154 321.295 198.16 324.141 181.5 324.127C159.17 324.107 138.046 318.95 119.24 309.778C123.435 305.461 126.022 299.572 126.027 293.077C126.039 279.822 115.304 269.068 102.049 269.056C92.7091 269.048 84.6111 274.376 80.6377 282.161C54.9541 256.362 39.0917 220.78 39.1266 181.5C39.1426 163.474 42.5064 146.233 48.6272 130.363C50.4068 130.785 52.2628 131.012 54.1715 131.013C67.4263 131.025 78.181 120.289 78.1928 107.035C78.1984 100.757 75.7926 95.0408 71.8509 90.7604C98.0164 59.1855 137.543 39.0874 181.753 39.1267ZM235.131 99.1898C225.359 98.9438 215.702 101.451 207.167 106.449C203.462 108.619 200.026 111.225 196.922 114.203C192.236 108.827 186.411 104.375 179.784 101.124L171.145 115.405C177.051 118.254 182.044 122.488 185.614 127.698C185.79 127.955 185.961 128.215 186.129 128.475C181.51 137.118 179.103 146.874 179.15 156.792C179.172 161.589 179.768 166.342 180.909 170.943C177.532 174.24 173.493 176.932 168.994 178.852C162.331 181.695 154.94 182.729 147.696 181.83C144.782 181.468 141.94 180.799 139.223 179.846L139.233 168.168L116.105 206.406L116.049 268.397L139.144 268.418L139.208 196.921C141.173 197.37 143.169 197.722 145.19 197.973C150.628 198.648 156.121 198.575 161.498 197.784L181.356 269.142L201.78 264.298L199.551 256.292C200.686 257.177 201.86 258.016 203.072 258.804C210.654 263.737 219.422 266.547 228.459 266.94C237.496 267.333 246.474 265.295 254.456 261.04C262.439 256.784 269.135 250.465 273.846 242.743C278.557 235.02 281.111 226.175 281.242 217.13C281.372 208.085 279.075 199.17 274.59 191.315C270.104 183.459 263.595 176.949 255.739 172.464C247.883 167.979 238.968 165.684 229.923 165.815L230.138 180.635C236.533 180.542 242.837 182.165 248.391 185.335C253.945 188.506 258.548 193.109 261.719 198.664C264.89 204.218 266.514 210.521 266.421 216.916C266.329 223.311 264.523 229.564 261.192 235.025C257.862 240.484 253.128 244.952 247.485 247.961C241.841 250.969 235.493 252.411 229.103 252.133C222.713 251.855 216.515 249.868 211.154 246.38C205.793 242.893 201.464 238.031 198.621 232.303L193.572 234.808L181.418 191.136C183.588 189.949 185.664 188.63 187.637 187.193C192.601 195.409 199.481 202.175 207.637 206.84C216.219 211.748 225.898 214.154 235.667 213.806L235.154 197.935C228.091 198.187 221.092 196.448 214.887 192.899C208.683 189.35 203.499 184.121 199.876 177.757C199.565 177.21 199.266 176.655 198.98 176.095C199.368 175.582 199.748 175.063 200.117 174.537C205.94 166.225 209.076 156.57 209.157 146.715C209.21 140.179 207.916 133.736 205.382 127.716C208.063 124.803 211.147 122.304 214.547 120.313C220.718 116.699 227.7 114.887 234.766 115.064C241.831 115.242 248.722 117.404 254.72 121.324C260.718 125.245 265.603 130.781 268.868 137.355L282.297 130.018C277.781 120.926 271.024 113.27 262.728 107.848C254.433 102.426 244.902 99.4359 235.131 99.1898ZM78.0488 269.035L102.049 269.056L102.126 182.056L127.325 182.078L143.459 155.093L102.15 155.056L102.179 122.056L163.178 122.11L179.203 95.3061L179.203 95.1244L78.2035 95.0346L78.0488 269.035Z" fill="#484848"/>
</svg>
